<?xml version="1.0" encoding="UTF-8" standalone="no" ?>
<!DOCTYPE svg PUBLIC "-//W3C//DTD SVG 1.1//EN" "http://www.w3.org/Graphics/SVG/1.1/DTD/svg11.dtd">
<svg xmlns="http://www.w3.org/2000/svg" xmlns:xlink="http://www.w3.org/1999/xlink" version="1.1" width="32" height="32" viewBox="0 0 32 32" xml:space="preserve">
<desc>Created with Fabric.js 5.3.0</desc>
<defs>
</defs>
<g transform="matrix(1.2758870142 0 0 1.2758870142 16 16)" id="Tk1NI08UThhcvy-cQT0V6"  >
<path style="stroke: rgb(0,0,0); stroke-width: 0; stroke-dasharray: none; stroke-linecap: butt; stroke-dashoffset: 0; stroke-linejoin: miter; stroke-miterlimit: 4; fill: rgb(0,0,0); fill-rule: nonzero; opacity: 1;"  transform=" translate(-0.0000024854, -0.0000018226)" d="M -11.59805 9.43451 C -11.718770000000001 9.43451 -11.82984 9.36857 -11.887640000000001 9.26259 C -11.945440000000001 9.156609999999999 -11.940740000000002 9.027529999999999 -11.875380000000002 8.926039999999999 L -0.16007000000000104 -9.265030000000001 L -0.16007000000000104 -9.265030000000001 C -0.09162000000000105 -9.37132 0.026409999999998962 -9.435250000000002 0.15283999999999898 -9.434510000000001 C 0.27925999999999895 -9.43377 0.396539999999999 -9.368470000000002 0.463739999999999 -9.26138 L 11.876909999999999 8.923889999999998 L 11.876909999999999 8.923889999999998 C 11.941399999999998 9.026639999999999 11.94498 9.156309999999998 11.88628 9.262459999999999 C 11.82757 9.368619999999998 11.71584 9.43451 11.594529999999999 9.43451 L 2.7100399999999993 9.43451 L 2.7100399999999993 9.43451 C 2.588399999999999 9.43451 2.476289999999999 9.368649999999999 2.4170699999999994 9.2624 C 2.3578399999999995 9.15615 2.3607899999999993 9.026159999999999 2.4247499999999995 8.922699999999999 L 5.2486 4.355479999999999 L 5.2486 4.355479999999999 C 5.36802 4.162329999999999 5.363569999999999 3.917219999999999 5.23722 3.7285299999999992 L 0.2990599999999999 -3.6456100000000005 L 0.2990599999999999 -3.6456100000000005 C 0.22833999999999988 -3.7512100000000004 0.1090199999999999 -3.8138800000000006 -0.01806000000000013 -3.8121700000000005 C -0.14514000000000013 -3.8104600000000004 -0.26273000000000013 -3.7445900000000005 -0.33058000000000015 -3.6371200000000004 L -8.405339999999999 9.153279999999999 L -8.405339999999999 9.153279999999999 C -8.515859999999998 9.328349999999999 -8.70844 9.43452 -8.915479999999999 9.43452 z" stroke-linecap="round" />
</g>
<g transform="matrix(1.2758870142 0 0 1.2758870142 12.6609217468 20.9285245249)" id="RCPqZEY-pXARY5wk0SpxS"  >
<path style="stroke: rgb(0,0,0); stroke-width: 0; stroke-dasharray: none; stroke-linecap: butt; stroke-dashoffset: 0; stroke-linejoin: miter; stroke-miterlimit: 4; fill: rgb(60,80,224); fill-rule: nonzero; opacity: 1;"  transform=" translate(-4.013e-7, 0.0000035363)" d="M -4.2982 5.06172 C -4.362509999999999 5.16441 -4.366 5.29391 -4.307309999999999 5.39991 C -4.248619999999999 5.50591 -4.137009999999999 5.57169 -4.0158499999999995 5.57169 L -1.4421999999999993 5.57169 L -1.4421999999999993 5.57169 C -1.2357899999999993 5.57169 -1.0437299999999992 5.46605 -0.9332199999999993 5.29171 L 4.26053 -2.9012899999999995 L 4.26053 -2.9012899999999995 C 4.3853100000000005 -3.0981199999999993 4.37751 -3.3511299999999995 4.2408600000000005 -3.5399099999999994 L 2.8851900000000006 -5.412699999999999 L 2.8851900000000006 -5.412699999999999 C 2.8102300000000007 -5.516249999999999 2.6886900000000007 -5.5757699999999994 2.560930000000001 -5.571479999999999 C 2.433160000000001 -5.567189999999999 2.315890000000001 -5.499669999999999 2.248040000000001 -5.3913199999999994 z" stroke-linecap="round" />
</g>
<g transform="matrix(1.2758870142 0 0 1.2758870142 17.1708119877 23.2289249808)" id="0GpeyAx473j9SKhW4rlVT"  >
<path style="stroke: rgb(0,0,0); stroke-width: 0; stroke-dasharray: none; stroke-linecap: butt; stroke-dashoffset: 0; stroke-linejoin: miter; stroke-miterlimit: 4; fill: rgb(60,80,224); fill-rule: nonzero; opacity: 1;"  transform=" translate(0.0000017563, 0.0000106059)" d="M -3.06833 3.26866 C -3.13106 3.36958 -3.13416 3.49657 -3.07643 3.6004300000000002 C -3.0187000000000004 3.7042900000000003 -2.9092100000000003 3.7687000000000004 -2.7903800000000003 3.7687000000000004 L -0.39005000000000045 3.7687000000000004 L -0.39005000000000045 3.7687000000000004 C -0.18593000000000046 3.7687000000000004 0.003589999999999538 3.6628700000000003 0.11065999999999954 3.4890900000000005 L 3.0338199999999995 -1.2549099999999993 L 3.0338199999999995 -1.2549099999999993 C 3.1512499999999997 -1.4454799999999992 3.1448399999999994 -1.6874699999999994 3.0174999999999996 -1.8715599999999992 L 1.8154099999999995 -3.609409999999999 L 1.8154099999999995 -3.609409999999999 C 1.7445799999999996 -3.711809999999999 1.6269299999999995 -3.771659999999999 1.5024499999999996 -3.768609999999999 C 1.3779699999999997 -3.765559999999999 1.2633999999999996 -3.700029999999999 1.1976699999999996 -3.594279999999999 z" stroke-linecap="round" />
</g>
</svg>